<svg xmlns="http://www.w3.org/2000/svg" xmlns:xlink="http://www.w3.org/1999/xlink" viewBox="-30 -30 660 860">
<!-- <svg xmlns="http://www.w3.org/2000/svg" xmlns:xlink="http://www.w3.org/1999/xlink" viewBox="0 0 600 800"> -->
<title>Bundesrepublik_Deutschland</title>
<desc>Karte der Bundesländer; Quelle: https://commons.wikimedia.org/wiki/File:Karte_Bundesrepublik_Deutschland.svg</desc>
<defs>
<style type="text/css">
:root {
	--dunkelrosa: #d9248f;
	--schwarz: #1e0c26;
	--dunkelgrau: #2c424a;
	--hellgrau: #d9d9d9;
	--orange: #f4a400;
	--hellgruen: #98cfad;
}

#Deutschland {
  fill: none;
  stroke: var(--hellgrau);
  stroke-width:0.3;
}

.DE {
  fill: white;
  stroke: none;
}

#Regionen {
  fill: white;
  stroke: var(--hellgrau);
  stroke-width: 1.5	;
  opacity: 1;
}

#Regionen-Nord { fill: url(#fillNord) }
#Regionen-West { fill: url(#fillWest) }
#Regionen-Ost { fill: url(#fillOst) }
#Regionen-Südwest { fill: url(#fillSüdwest) }
#Regionen-Bayern { fill: url(#fillBayern) }

.region { opacity: 0.9 }

.region:hover { opacity: 0.7 }

#city-markers-group circle {
  fill: var(--orange);
  stroke: var(--dunkelgrau);
  stroke-width: 1;
}
</style>
<pattern id="fillNord" patternUnits="userSpaceOnUse" width="10" height="10">
  <rect width="10" height="10" fill="var(--dunkelrosa)" />
  <circle cx="5" cy="5" r="1" fill="darkblue" opacity="0.4" />
</pattern>
<pattern id="fillWest" patternUnits="userSpaceOnUse" width="10" height="10">
  <rect width="10" height="10" fill="var(--dunkelrosa)" />
  <line x1="0" y1="5" x2="5" y2="0" stroke="darkblue" stroke-width=".7" stroke-opacity="0.4"/>
</pattern>
<pattern id="fillOst" patternUnits="userSpaceOnUse" width="10" height="10">
  <rect width="10" height="10" fill="var(--dunkelrosa)" />
  <circle cx="5" cy="5" r="1.5" fill="none" stroke="darkblue" stroke-width=".7" stroke-opacity="0.4" />
</pattern>
<pattern id="fillSüdwest" patternUnits="userSpaceOnUse" width="20" height="10">
  <rect width="20" height="10" fill="var(--dunkelrosa)" />
  <path d="M 2.5 5 Q 5 2.5, 10 5 T 17.5 5"  stroke="darkblue" stroke-width="1" stroke-opacity="0.4" fill="none"/>
</pattern>
<pattern id="fillBayern" patternUnits="userSpaceOnUse" width="10" height="10">
  <rect width="10" height="10" fill="var(--dunkelrosa)" />
  <polygon points="5,0 5,5 5,5 0,5" stroke="darkblue" stroke-width="0.5" stroke-opacity="0.4" fill="none"/>
</pattern>
</defs>

<g id="DE">
	<path id="DE-outer" class="DE"
		d="m 161.19921,0.65983825 -6.25,15.66992175 -1.03907,17.710938 3.7793,-14.220704 4.71094,3.580079 11.76953,-4.009766 5.9707,17.458984 10.41992,11.710938 -2.67968,2.279297 4.21875,-1.339844 0.83008,1.839844 -5.5293,13.429687 5.79883,1.169922 5.54101,-6.619141 1.18946,4.400391 3.03125,0.388672 -11.39063,7.451172 -16.15039,2.019531 -0.80078,2.109375 5.35156,1.38086 -3.10156,1.960937 -2.1582,-1.621094 -1.71094,5.060547 6.23047,4.59961 2.02929,-2.439454 8.26953,0.650391 -1.93945,12.128906 3.1211,5.669922 4.46875,-1.28906 3.64062,7.99023 -1.70117,2.37891 -5.00977,-1.17969 -4.75,2.33008 4.91016,2.28906 1.5,7.38086 6.26953,6.5 0.0371,-0.002 1.00391,3.53125 -8.04102,1.86133 -7.83984,-1.3711 -5.22852,-5.99023 -4.93164,1.21094 -4.07812,7.0996 -4.18165,12.99024 2.48526,9.53429 3.66495,6.96594 -1.42488,1.83498 -2.41511,-3.76462 -3.4707,0.62891 -8.06836,-6.34961 -3.58008,0.12109 -3.41992,9.73828 5.2793,-0.10937 0.18945,6.81055 -2.92969,5.50976 -4.20898,0.14063 -8.78125,-7.68164 -0.17969,-3.09961 7.09961,-3.25977 -3.50977,-10.82031 -4.65039,-0.60938 -1.08984,-7.07031 -13.80859,0.12109 1.57812,-2.91992 -1.79883,2.53906 -6.55078,1.16016 -0.0195,-2.10937 -11.38086,5.20898 -10.449218,-1.73047 -7.429688,1.81055 -9.890625,9.75 3.451172,3.9707 -2.509765,3.22852 -4.041016,-2.68946 3.699219,3.96094 -4.208985,-3.67969 -1.210937,20.45899 18.761719,2.26953 -4.021485,0.19141 -2.289062,8.13867 1.128906,6.83984 -3.039063,4.25977 2.419922,13.9707 -8.279297,16.56055 -2.080078,21.73047 -19.339843,-0.57032 -2.53125,2.25 3.480468,6.67969 -5.529297,1.08008 1.128907,6.91992 3.810547,2.5293 11.759765,2.83984 3.119141,-3.38867 5.28125,9.78906 -3.019531,8.68946 2.388671,5.02148 0.03125,0.0195 -5.041015,1.66992 -8.230469,10.89063 -6.009766,0.20898 -1.539062,4.49024 -2.730469,0.49023 -0.429687,3.20899 9.128906,5.46093 -6.25,9.05078 -3.039063,-1.90039 -13.679687,6.58008 -4.941406,-2.16015 0.65039,4.86914 -18.070312,-7.69922 3,6.26953 -6.488282,-2.44922 -7.5800776,4.17969 2.8886718,4.20898 -2.2695312,4.54102 5.650391,2.24023 -0.740235,4.40039 5.359375,1.83985 -1.609375,5.16015 7.810547,9.57813 0.789063,15.33008 -9.830079,12.1914 0.679688,7.11914 5.310547,-2.25 -1.640625,2.16016 2.210937,1.58984 -10.4511715,6.65039 -3.2890625,5.64063 -2.9003906,-3.08985 -3.07031253,1.85938 2.07031253,7.37891 8.1210936,-0.90821 -0.3515624,4.98828 4.8105464,1.31055 -1.330078,7.54102 -3.5097653,0.0684 0.3808593,3.10156 -3.2714843,1.8789 3.3515623,2.29102 0.839844,5.46875 5.240234,-0.0586 3.580078,9.36914 5.839844,-0.01 -5.771484,8.42969 3.041015,4.67969 7.929688,0.66015 1.630859,5.26953 -2.240234,5.6211 4.009766,5.74023 -2.75,1.83008 -3.230469,-1.61133 -1.949219,5.25977 -6.589844,3.15039 0.919922,5.2207 -3.160156,1.41016 -1.970703,10.81054 4.210937,10.5 2.919922,0.35938 0.689453,4.95898 5.650391,6.03125 2.509766,-1.23047 4.36914,3.93946 6.240235,0.0996 -0.740235,8.53125 -5.509765,5.33984 -4.650391,9.5 1.419922,2.0293 -0.798828,7.89062 3.919922,-0.55078 7.86914,5.00977 -0.789062,2.2207 3.888672,3.57031 -2.148438,1.83008 6.56836,6.5293 4.40039,11.25976 6.169922,1.08008 0.160156,-5.79883 5.580078,-1.01953 6.88086,3.17969 1.359375,7.55859 2.699219,-4.11914 3.771484,3.41992 8.71875,0.53907 4.410156,-4.20899 5.089839,-2.48047 -0.45898,1.8711 3.71875,-0.41992 2.18164,6.92968 9.26953,5.08985 7.68946,-2.06055 4.5996,3.12109 4.30079,-2.37109 19.02734,8.90039 -9.09766,15.78906 -7.49023,4.36133 -8.45899,11.18945 -6.80078,23.66993 0.7793,6.42968 -3.28906,2.42969 -7.41016,17.30078 -0.4707,8.22071 3.37109,5.91992 -4.18945,8.81836 -0.55078,13.76172 -2.32031,3.42968 5.00976,10.15039 6.5,-1.03125 -0.41016,3.26954 -3.28906,0.43164 3.72071,2.71875 8.25,-5.23047 4.43945,0.0605 3.24023,4.08985 9.35938,-1.29883 7.35937,-5.95117 11.33008,5.16015 6.63086,-1.06054 -1.92969,-2.26953 4,-2.98047 3.58985,3.60156 3.33007,-4.98047 -1.48046,-2.34961 -8.21094,3.16992 -4.44922,-3.28125 4.98047,-9.08984 5.8789,-1.10938 -0.58007,-2.51953 3.23047,0.86914 0.73046,3.78125 1.60938,-3.90039 2.53125,4.15039 1.85937,-0.82031 0.25,6.72852 4.16993,1.79101 -1.40039,-4.16015 2.45117,-1.83008 5.45898,8.4707 12.39063,-2.9707 32.49023,12.43945 2.46875,-5.16015 -2.44922,5.20117 8.66992,1.34961 4.14063,-5.81055 0.89844,4.44141 3.75,1.86914 6.1914,-1.68946 1.92969,5.94922 5.92969,2.78125 0.33008,9.21875 5.40039,-3.53906 3.44922,1 -3.89063,10.53906 9.8418,-3.33008 6.73828,-7.13867 2.53125,-4.84179 -2.39063,-14.19922 2.72071,-0.0801 -1.6211,2.79101 4.33008,1.92969 3.09961,0.11914 1.67188,-3.28906 11.38867,5.12891 6.96093,-2.15039 1.9004,2.25 -3.08008,2.90039 4.21875,0.14062 2.64062,7.74024 8.85938,0.16992 5.74023,-3.50977 3.0293,0.53906 -1.84961,3.08985 2.83984,-0.18946 4.41016,-4.90039 5.37109,0.42969 -2.39062,-2.60937 3.14062,-3.84961 8.91016,-0.16016 4.08984,-7.4707 13.25,1.1914 10.44922,-4.07031 12.33008,1.79883 -2.5293,-8.83984 5.66016,-4.0293 0.20898,6.01953 11.76953,-1.50977 3.74024,6.58985 5,-0.73047 1.84961,-3.7793 11.35156,-0.0703 -1.50976,2.09961 4.16992,3.65039 -2.80078,2.91992 1.02929,2.41992 13.1211,8.66993 2.77929,-2.65039 2.16993,-18.37891 -4.04883,-3.45117 h -6.95117 l 6.08984,-11.89844 -4.16992,-8.89063 -4.06055,-1.86914 -7.14844,-10.4414 -0.27148,-5.09961 16.76172,-12.53906 19.94922,-6.51172 6.66992,-10.01953 v -12.24024 l 4.46094,-3.0293 14.18945,7.22071 5.83008,-9.56055 0.91015,-8.09961 -2.73047,-1.62109 2.89063,-5.42969 -6.49024,-11.07031 -4.23046,0.57031 -2.68946,-6.66992 -6.21093,-2.41016 -2.33008,3.16992 -5.85938,-4.40039 -0.63086,-6.48828 -6.63867,-6.30078 -7.05078,-1.80078 -9.56055,-16.26953 -5.41015,-3.90039 -10.42969,-0.28906 -1.45899,-4.66993 -6.38085,-3.88086 -0.83985,-8.71875 -3.45898,-1.41015 -1.8711,-8 -2.07031,0.14844 -0.40039,-6.69922 -7.51953,-5.50977 4.40039,-4.33008 4.76953,-13.2207 -4.42969,-1.50977 0.76953,-4.45898 -14.5996,-7.63086 0.89062,-1.78906 -4.81055,-3.25977 1.0293,-5.88086 -7.9082,-8.04101 3.08984,-2.60938 -2.5,-4.20898 5.31836,-0.41016 1.04102,4.94922 3.44921,0.17969 -0.97851,2.48047 3.44922,2.49023 -0.24024,4.37891 2.99024,0.40039 -0.38086,-6.84961 11.58008,-15.4707 10.2207,-1.98829 2.14062,1.94922 1.83985,-3.50976 3.81055,-1.67969 0.95898,1.78906 0.58008,-2.83984 8.16015,5.65039 4.69922,-4.54102 0.71094,-6.1289 10.41016,0.64062 3.30859,-8.86133 4.82031,1.24024 3.14063,-7.0293 6.03906,4.66992 3.70117,-3.59961 0.10938,-6.64062 21.03125,-2.21094 2.6582,-1.70898 0.13086,-4.89063 11.26953,-1.8789 12.08984,-8.35157 7.66993,-0.30859 0.65039,-3.83984 -5.5,-1.8711 0.91992,-3.03906 -4.16992,-0.25977 2.7207,-6.85156 6.82031,3.66992 5.25977,-0.45898 0.58008,-2.33984 -0.19141,2.45898 6.39063,3.63086 -2.09961,6.83008 5.38086,-1.31055 -1.94141,7.40039 11.25976,3.75977 11.58008,-25.84961 4.1211,-19.95117 -4.11133,-7.03907 -1.69922,-12.9707 -13.70898,-5.7793 -0.38086,-5.68945 -0.0156,-0.0117 1.72461,-7.95898 -10.61914,-17.16016 6.63086,-7.66992 4.06836,-16.94922 -4.9082,-5.25 2.03906,-12.46094 -7.73047,-3.90039 -3.70899,-12.59961 6.32032,-9.96875 -1.88086,-4.48047 2.17969,-4.03125 -18.25977,-18.69922 -14.57031,-9.19921 2.41015,-4.88086 -1.03906,-8.08008 13.96875,-12.39063 0.82031,-12.83007 4.5,-6.73829 -2.24023,-7.2207 -0.006,0.002 -8.4043,-38.11132 -4.14843,-1.70118 3.30859,-4.92968 -10.48047,0.91015 -18.18945,-11.06054 0.46093,-3.65039 5.71875,-4.89844 -10.85937,-11.49024 3.7207,-7.61132 -6.60156,-5.50977 0.80078,-2.148438 -14.05078,4.859378 0.64063,4.16992 -2.08008,-0.0801 -3.68946,-7.509765 -1.80078,1.250005 2.24024,-3.230474 -6.36914,1.550782 3.41992,-2.361328 -2.83985,-0.228516 -2.33007,-5.541016 -6.5,-3.419922 -2.73047,1.419922 2.24023,-1.820312 -4.75976,-1.330078 -0.75977,-9.388672 -4.25976,-3.169922 0.25,-4.240234 -6.79102,2.46875 -7.15039,7.560546 -1.60938,-5.669921 -3.25976,2.779296 -2.24024,-3.080078 -1.52929,3.050782 1.94922,-4.419922 -10.89063,5.089843 6.48047,-6.640625 3.05078,0.53711 -0.63086,0.46289 3.41992,0.111329 -0.11718,-0.105469 4.80664,0.845703 7.87109,-2.041016 -0.62109,-1.970703 -22.50977,-0.898437 -2.04883,-3.080079 -12.5,20.279297 -9.57031,6.34961 -3.87109,5.849609 -17.70899,4.201175 -10.65039,-0.800784 -9.70898,8.541014 0.26953,2.75 4.66992,-5.9414 1.34961,1.37109 -3.2793,6.12891 -3.46093,0.25 -1.87891,6.9707 0.0195,-5.95899 -6.66016,2.19922 0.14063,3.93946 2.75,0.41015 0.85937,-3.94922 0.0605,4.28907 2.41992,-0.90039 -1.52148,7.62109 -7.89844,-6.75 -4.98047,2.57031 0.12891,-5.23047 -5.08008,-3.39062 -8.98828,0.9707 -8.63574,5.36426 -2.13575,-3.79395 -5.43945,-0.71093 -2.11914,-5.41016 3.68945,-6.2793 3.89063,2.32032 14.18945,-12.240239 -2.27929,-16.929688 4.36914,-2.111328 -0.83985,-2.818359 -5.56054,3.269531 -6.00977,-1.509766 -8.99023,7.580079 -5.49024,0.849609 -6.59961,-6.439453 -17.55078,-7.839844 -6.20898,2.369141 -2.67969,9.429687 -3.28125,1.769531 4.27148,-15.75 -4.75,-3.208984 -16.57031,4.019531 -2.07031,-2.86914 8.34961,-3.201172 4,-5.240235 0.49023,-13.019531 -2.34961,-1.878906 2.49024,0.08984 -5.13086,-10.28125 -3.26953,-1.958985 0.01,3.71875 -3.34961,1.140625 -3.83984,-4.810547 -12.03125,-3.769531 0.4707,-5.070312 -11.26953,9.701171 -1.73047,-5.880859 -4.18945,4.599609 -3.16016,-0.138671 -2.85937,-0.970704 -0.89063,-4.460937 -18.37109,-5.738281 -19.85938,-0.960938 -2.18945,2.650391 -11.07031,1.048828 -3.58008,-2.318359 -1.10938,-7.5800785 5.5586,-5.2109375 -2.8086,-3.2792969 4.42969,-0.140625 -1.76953,-0.59960935 z m 8.33984,32.66992175 -6.23828,1.009766 -1.81055,5.03125 10.70899,2.419922 1.25,-7.300782 z m -10.53906,4.660156 -4.47071,5.150391 4.45118,6.199219 2.41992,-0.449219 -0.93945,-2.710938 -2.83008,-5.458984 z m 323.31054,3.369141 -11.83007,2.880859 -5.41016,10.88086 7.85938,-9.541016 -2.61915,9.480469 8.03907,-6.070313 4.83008,6.900391 4.20117,-1.509766 -0.54102,9.208985 -3.33008,1.080078 -2.44922,-2.458985 -2.3496,-7.220703 -2.3418,1.220703 1.02148,-3.480468 -3.66015,2.990234 0.44922,4.240234 -3.81055,-4.460937 -6.36914,0.960937 1.65039,4.208985 3.8789,-0.310547 -0.17968,2.75 2.70117,0.611328 -4.56055,3.560547 1.79883,-4.080078 -3.66992,-0.830078 -3.06836,4.86914 3.63867,-0.90039 -1.79883,3.630859 3.91016,-0.791015 3.11914,4.980468 -8.4707,1.449219 -0.83008,4.210938 4.49023,3.490234 -2.84961,2 3.41993,-1.599609 0.39062,2.878906 4.34961,1.791015 4.16992,-2.701171 -0.7793,3.611328 -1.98046,-0.570313 6.45898,3.179688 1.64063,-3.560547 -3.37891,-1.089844 -0.46094,1.890625 -0.33984,-2.53125 9.55078,-7.888672 5.19922,-1.210937 1.98047,2.541015 4.41015,-2.361328 -4.77148,3.810547 5.99023,-1.099609 -3.70898,3.179687 3.58008,0.140625 0.53906,3 3.54101,-7.890625 -5.99023,-6.490234 -3.75977,-0.378906 -2.4707,-4.759766 6.60938,-12.740235 -2.8086,-2.300781 -13.64062,0.740235 -2.76953,-6.089844 z m -18.17968,8.921875 -2.95117,1.308594 -2.20899,14.480469 z m -292.69141,2.558594 -2.91992,0.191406 4.19141,2.039062 z m 9.55078,2.291015 -7.40039,2.869141 1.83985,4.509766 5.39062,-1.128907 z m -15.70117,1.689453 1.17188,5.25 0.9082,-4.279296 z m 167.20117,1.259766 -3.38086,2.380859 -1.30859,7.298829 2.50976,1.5 -1.58007,-1.59961 4.10937,-0.5 2.14063,4.949219 4.48047,-2.138672 7.80859,2.189453 -5.36914,-11.140625 z m -167.92969,8.339844 2.66993,4.291016 1.93945,-1.669922 -2.34961,-2.451172 z m 341.7793,31.339844 -3.92969,0.871093 4.03907,5.478519 -2.69922,9.62109 5.58984,-3.09961 0.23047,5.16016 3.83984,-3.62696 -0.64062,-3.16406 3.86133,-0.0801 4.9082,8.6211 -0.44922,4.56836 -3.65039,-2.10938 -1.58984,2.95117 0.37109,-5.89062 -3.52148,-0.01 1.86132,8.65039 -7.0996,6.31836 5.43945,0.79102 1.08984,-3.35938 0.74024,3.28907 6.20898,-3.26953 11.16992,0.75 -1.76953,-4.97071 2.66992,-1.60937 -13.35937,-13.40039 -9.15039,-5.18946 z m 7.07031,14.404292 0.39063,1.93555 -0.28125,-2.03906 z m -384,25.84571 -3.14062,0.9414 7.91016,1.22852 z m -11.01953,1.42969 -3.42968,2.96093 9.42968,-1.85937 z m -9.23047,2.46093 -6.29101,0.53907 -0.9082,3.27148 10.54882,-2.33984 z m -11.291011,2.5293 -2.638672,1.00977 4.990233,0.89062 z m -41.449219,12.33984 -6.060547,3.78125 5.740234,3.15039 -1.740234,-3.04101 6.041016,-1.59961 z m 124.57031,593.66016 -2.89062,2.2207 3.4707,-0.13086 z"
	/>
</g>

<g id="Regionen">
  <path id="Regionen-Nord" class="region"
		d="m 160.70508,0.40625 -6.25,15.669922 -1.03906,17.708984 3.77929,-14.21875 4.71094,3.580078 11.76953,-4.009765 5.9707,17.458984 10.41993,11.710938 -2.67969,2.279297 4.21875,-1.339844 0.83008,1.839844 -5.5293,13.429687 5.79883,1.169922 5.54101,-6.619141 1.18946,4.400391 3.03125,0.388672 -11.39063,7.451172 -16.15039,2.019531 -0.79883,2.109375 5.34961,1.380859 -3.09961,1.958985 -2.16015,-1.619141 -1.71094,5.060547 6.23047,4.599609 2.02929,-2.439453 8.26954,0.648438 -1.93946,12.130859 3.1211,5.66992 4.46875,-1.29101 3.64062,7.99023 -1.69922,2.38086 -5.01172,-1.17969 -4.75,2.33008 4.91016,2.28906 1.5,7.38086 6.27149,6.5 0.0352,-0.002 1.00391,3.53125 -8.03906,1.85937 -7.8418,-1.36914 -5.22852,-5.99023 -4.92968,1.21094 -4.08008,7.09961 -4.18164,12.99023 2.48046,9.5293 0.27145,-0.0117 3.66016,6.96094 -1.41993,1.83984 -0.27148,0.0118 -2.41016,-3.75977 -3.46875,0.62891 -8.07031,-6.34961 -3.58008,0.11914 -3.41992,9.74023 5.2793,-0.10937 0.18945,6.81055 -2.92969,5.50976 -4.20898,0.13867 -8.78125,-7.67968 -0.17969,-3.09961 7.09961,-3.25977 -3.50977,-10.82031 -4.65039,-0.60938 -1.08984,-7.07031 -13.80859,0.11914 1.58008,-2.91992 -1.80079,2.54102 -6.55078,1.16015 -0.0195,-2.11133 -11.3789,5.21094 -10.451177,-1.73047 -7.429687,1.81055 -9.890625,9.75 3.451171,3.9707 -2.509765,3.22852 -4.041016,-2.68945 3.701172,3.96093 -4.210937,-3.68164 -1.210938,20.46094 18.761719,2.26953 -4.021485,0.18945 -2.289062,8.14063 1.128906,6.83984 -3.039062,4.25977 2.419922,13.9707 -8.279297,16.56055 -2.080078,21.72851 -19.339844,-0.56835 -2.53125,2.25 3.480469,6.67968 -5.529297,1.08008 1.128906,6.91992 3.810547,2.5293 11.759766,2.83984 3.11914,-3.39062 5.28125,9.79101 -3.019531,8.68946 2.388672,5.01953 0.816406,0.58008 128.527345,35.99023 -11.90625,70.93945 20.25195,104.85938 9.47852,1.75 4.06054,4.65039 4.99024,-1.00977 -0.76953,-14.57031 10.45898,0.81055 -0.65039,-3.75 5.89063,-3.84961 0.98047,-11.50977 8.91992,2.12891 7.44922,-6.28906 1.5,-4.94141 -0.29883,-9.45898 2.88867,-1.18946 -1.82031,-4.86132 -6.39844,0.38085 0.39844,3.78907 -5.31836,-1.08985 4.86914,-18.15039 4.75,-1.34961 2.12109,-4.83984 -3.0918,-3.95899 -2.56835,1.38868 1.02929,-2.38868 -2.39062,-1.06054 7.20117,-0.25 -2.79102,-3.71094 1.25977,-3.18945 10.53125,0.53125 0.0586,-2.77149 -4.10937,-2.45898 2.13086,-5.74024 -3.50977,-2.32031 2.94922,-1.40039 2.09961,4.07031 2.42969,-7.39062 -10.72852,-4.14844 -0.8418,-5.28125 -5.29882,-0.59961 -2.82032,-9.23047 -0.0371,-0.0957 7.45898,-6.25195 1.40039,1.94922 5.44922,-1.36914 3.07031,-5.57032 2,1.58008 4.16016,-2.37109 4.54101,-9.57032 4.00977,-0.47851 5.49023,3.91016 5.5293,-2.6211 3.23047,2.15039 -1.14063,-6.25 3.95899,-2.24023 -8.0293,-17.40039 0.20117,-3.86914 4.59961,-4.32032 -2.33984,-4.90039 2.41992,-1.99023 -5.66992,-4.83985 8.79883,-4.68945 16.91992,-0.71094 -1.42969,-4.78906 6.4707,-3.21094 0.95899,-4.00976 -2.96875,-2.62891 4.58984,-3.15039 -6.5,-11.68945 5.83985,-3.4707 -8.97071,-8.93946 0.71094,-3.4414 4.0293,-0.17969 -4.51953,-7.54883 2.46875,-5.88086 -3.60938,1.46094 -5.78906,-11.20117 -1.93164,0.25976 -1.97852,-13.52929 11.01953,-1.11914 4.16016,-6.16016 19.60937,3.49023 12.05079,-6.60156 0.44921,-6.87891 2.98047,0.69922 2.69922,-3.89062 -9.29883,-4.53906 -7.29101,2.43945 -4.54883,-7.00977 -5.31055,-1.52929 0.82032,-4.63086 -6.83008,-3.54883 -6.5,-12.73047 -4.41992,-1.58984 -5.26953,4.66992 -8.6504,-7.03125 -6.65039,0.68164 -0.0176,-0.008 2.4082,-9.51368 12.25,-6.34961 -0.16992,-6.54882 5.61914,0.35937 2.65039,-8.29101 -1.85938,-5.46875 -4.63086,-0.29102 -5.84961,-5.35937 0.84961,-13.01954 6.92969,-5.62109 1.96094,2.87109 3.44922,-1.03125 -4.58985,-1.61914 0.66016,-3.64062 -2.12109,-3.80859 -5.43946,-0.71094 -2.11914,-5.41016 3.68946,-6.2793 3.89062,2.32032 14.18945,-12.240238 -2.27929,-16.929687 4.36914,-2.111328 -0.83985,-2.820313 -5.56054,3.271485 -6.00977,-1.509766 -8.99023,7.578125 -5.49024,0.851563 -6.59961,-6.441407 -17.54882,-7.839843 -6.21094,2.371093 -2.67969,9.429688 -3.2793,1.769531 4.26953,-15.75 -4.75,-3.208984 -16.57031,4.019531 -2.07031,-2.871094 8.34961,-3.199218 4,-5.240235 0.49023,-13.019531 -2.34961,-1.88086 2.49024,0.08984 -5.13086,-10.279297 -3.26953,-1.958984 0.01,3.71875 -3.34961,1.140625 -3.83984,-4.810547 -12.0293,-3.769531 0.46875,-5.070313 -11.26953,9.699219 -1.73047,-5.878906 -4.18945,4.599609 -3.16016,-0.140625 -2.85937,-0.96875 -0.89063,-4.460937 -18.36914,-5.740235 -19.86133,-0.958984 -2.18945,2.650391 -11.07031,1.048828 -3.58008,-2.320313 -1.10937,-7.5800779 5.56054,-5.2089843 -2.81054,-3.2792969 4.42968,-0.140625 -1.76953,-0.5996094 z m 8.3418,32.669922 -6.24024,1.009766 -1.81055,5.029296 10.70899,2.419922 1.25,-7.298828 z m -10.54102,4.660156 -4.4707,5.150391 4.45117,6.199219 2.41992,-0.449219 -0.93945,-2.710938 -2.83008,-5.458984 z m 12.43945,14.84961 -2.91992,0.189453 4.19141,2.041015 z m 9.55078,2.291015 -7.40039,2.869141 1.83985,4.509765 5.39062,-1.128906 z m -15.69921,1.689453 1.16992,5.25 0.91015,-4.28125 z m 167.19921,1.259766 -3.38086,2.378906 -1.30859,7.300781 2.50977,1.5 -1.58008,-1.599609 4.10937,-0.5 2.14063,4.949219 4.48047,-2.138672 7.80859,2.189453 -5.36914,-11.140625 z m -167.92968,8.339844 2.66992,4.289062 1.93945,-1.669922 -2.34961,-2.449218 z m -35.15039,71.589844 -3.14063,0.93945 7.91016,1.23047 z m -11.01954,1.42969 -3.42968,2.96093 9.42968,-1.86132 z m -9.23046,2.46093 -6.28907,0.53907 -0.91015,3.26953 10.54882,-2.33985 z m -11.289067,2.5293 -2.640625,1.00977 4.990234,0.89062 z m -41.451172,12.33984 -6.060547,3.78126 5.740235,3.14843 -1.740235,-3.03906 6.041016,-1.59961 z"
  />
  <path id="Regionen-Ost" class="region"
    d="m 482.62126,41.753061 -11.83008,2.88086 -5.41016,10.87891 7.85938,-9.53906 -2.61914,9.47851 8.03906,-6.06836 4.83008,6.89844 4.19922,-1.50977 -0.53906,9.21094 -3.33008,1.08008 -2.44922,-2.46094 -2.35156,-7.21875 -2.33985,1.21875 1.02149,-3.47851 -3.66016,2.98828 0.44922,4.24023 -3.81055,-4.45898 -6.36914,0.95898 1.65039,4.21094 3.87891,-0.31055 -0.17969,2.75 2.70117,0.60938 -4.56054,3.56054 1.79882,-4.08007 -3.66992,-0.83008 -3.06836,4.87109 3.63868,-0.90039 -1.79883,3.62891 3.91015,-0.78906 3.11914,4.98046 -8.4707,1.44922 -0.83008,4.21094 4.49024,3.48828 -2.84961,2 3.41992,-1.59961 0.39062,2.88086 4.34961,1.78906 4.16993,-2.69921 -0.7793,3.60937 -1.98047,-0.57031 6.45898,3.18164 1.64063,-3.56055 -3.37891,-1.08984 -0.46093,1.88867 -0.33985,-2.5293 9.55078,-7.89062 5.19922,-1.20899 1.98047,2.53907 4.41016,-2.35938 -4.77149,3.81055 5.99024,-1.09961 -3.70899,3.17969 3.58008,0.13867 0.53906,3 3.54102,-7.88867 -5.99024,-6.49024 -3.75976,-0.38086 -2.4707,-4.75976 6.60937,-12.74024 -2.80859,-2.29883 -13.64063,0.74024 -2.76953,-6.0918 z m -18.18164,8.91992 -2.94922,1.31055 -2.20898,14.48047 z m -39.23828,13.17969 -12.5,20.28125 -9.57032,6.34961 -3.87109,5.84961 -17.70898,4.199219 -10.65039,-0.798829 -9.71094,8.539059 0.27148,2.75 4.66992,-5.93945 1.34961,1.36914 -3.27929,6.13086 -3.46094,0.25 -1.87891,6.9707 0.0195,-5.96093 -6.66015,2.20117 0.14062,3.93945 2.75,0.41016 0.85938,-3.95117 0.0605,4.29101 2.41992,-0.90039 -1.52149,7.61914 -7.89843,-6.75 -4.98047,2.57031 0.1289,-5.22851 -5.08008,-3.39063 -8.98828,0.97071 -8.62109,5.34961 -0.66016,3.63867 4.58985,1.62109 -3.44922,1.0293 -1.96094,-2.86914 -6.92969,5.61914 -0.84961,13.01953 5.84961,5.36133 4.63086,0.28906 1.85938,5.4707 -2.65039,8.28907 -5.61914,-0.35938 0.16992,6.55078 -12.25,6.34961 -2.41992,9.56055 6.65039,-0.68164 8.64843,7.03125 5.27149,-4.66992 4.41992,1.58984 6.5,12.73047 6.83008,3.54883 -0.82031,4.63086 5.31054,1.52929 0.008,0.002 4.54101,6.99804 7.29102,-2.43945 9.29883,4.53906 h 0.004 l -2.69336,3.88086 -2.99023,-0.68945 -0.43946,6.8789 -12.05078,6.59961 -19.60937,-3.49023 -4.16016,6.16992 -11.01953,1.11133 1.97852,13.5293 1.93164,-0.25977 5.78906,11.19922 3.60937,-1.45898 -2.45898,5.8789 4.51953,7.55078 -4.0293,0.17969 -0.71093,3.44141 8.9707,8.94922 -5.83008,3.45898 6.49024,11.70117 -4.58985,3.15039 2.96875,2.63867 -0.95898,4.00977 -6.4707,3.21094 1.42968,4.78906 -16.91992,0.71094 -8.79883,4.68945 5.66016,4.83984 -2.41992,1.99024 2.33984,4.90039 -4.58984,4.33008 -0.21094,3.85937 8.0293,17.40039 -3.95899,2.24024 1.14063,6.25976 -3.23047,-2.15039 -5.54102,2.6211 -5.47851,-3.91016 -4.01172,0.48047 -4.53906,9.56836 -4.16016,2.37109 -1.99023,-1.58008 -3.08008,5.57032 -5.44922,1.35937 -1.40039,-1.93945 -7.55078,6.32031 2.82031,9.22852 5.30078,0.60156 0.83984,5.2793 10.73047,4.15039 -2.42968,7.38867 -2.10157,-4.06836 -2.94922,1.39844 3.50977,2.32031 -2.12891,5.74023 4.10938,2.46094 -0.0606,2.76953 -10.5293,-0.53125 -1.25976,3.19141 2.78906,3.70898 -7.19922,0.25 2.38867,1.06055 -1.02929,2.39062 2.57031,-1.39062 3.08984,3.96094 -2.11914,4.83984 -4.75,1.34961 -4.87109,18.15039 5.32031,1.08984 -0.40039,-3.79101 6.40039,-0.37891 1.82031,4.85938 -2.89062,1.18945 0.30078,9.46094 4.25,-4.74024 2.18945,2.09961 3.89063,-1.14062 1.80859,4.31054 6.25977,1.71094 4.13086,9.97852 3.64062,-0.7793 2.5,4.63086 3.36914,-0.87109 3.51953,3.01953 0.5,10.28125 6.97071,2.53906 0.93945,-4.63867 7.33008,0.68945 -0.0703,-3.07031 -8.25,-4.51953 -0.15821,-2.5 7.56836,-4.63086 6.60157,0.01 3.11914,4.44141 8.31054,-1.88086 2.70899,3.59961 -0.75,4.46094 6.71093,1.69922 2.10938,-9.14063 -2.33984,-11.83984 2.75,0.32031 3.50976,-4.50977 5.41992,0.95118 -0.66992,6.68945 1.43945,2.44922 2.55079,-1.0293 2.5,5.5293 16.40039,-4.44922 2.90039,3 6.27929,-3.38086 3.80079,3.49023 -0.3711,3.75977 7.8711,3.25 5.31835,-0.41016 1.04102,4.95118 3.44922,0.17968 -0.97852,2.48047 3.44922,2.49024 -0.24023,4.3789 2.99023,0.40039 -0.38086,-6.84961 11.58008,-15.4707 10.2207,-1.99023 2.14063,1.95117 1.83984,-3.51172 3.8086,-1.67969 0.96093,1.79102 0.58008,-2.83985 8.16016,5.64844 4.69922,-4.53906 0.71093,-6.13086 10.41016,0.64062 3.30859,-8.85937 4.82032,1.24023 3.14062,-7.03125 6.03906,4.66993 3.70118,-3.59961 0.10937,-6.64063 21.0293,-2.20898 2.66015,-1.71094 0.13086,-4.88867 11.26954,-1.88086 12.08984,-8.34961 7.66992,-0.31055 0.65039,-3.83984 -5.5,-1.86914 0.91992,-3.04102 -4.16992,-0.25976 2.7207,-6.84961 6.82032,3.66992 5.25976,-0.46094 0.58008,-2.33984 -0.19141,2.46094 6.39063,3.6289 -2.09961,6.83008 5.37891,-1.30859 -1.93946,7.40039 11.25977,3.75976 11.58008,-25.85156 4.12109,-19.94922 -4.11133,-7.03906 -1.69922,-12.9707 -13.71093,-5.7793 -0.37891,-5.69141 -0.0156,-0.0117 1.7246,-7.95703 -10.61914,-17.16015 6.63086,-7.66993 4.06836,-16.95117 -4.91015,-5.25 2.04101,-12.45898 -7.73047,-3.90039 -3.70898,-12.59961 6.31836,-9.97071 -1.87891,-4.48046 2.17969,-4.0293 -18.25977,-18.69922 -14.57031,-9.20117 2.41016,-4.87891 -1.03906,-8.08008 13.96875,-12.39062 0.82031,-12.83008 4.5,-6.74023 -2.24024,-7.21875 -0.006,0.002 -8.40429,-38.11328 -4.15039,-1.69922 3.31054,-4.92969 -10.48047,0.91016 -18.18945,-11.06055 0.46094,-3.65039 5.71875,-4.90039 -10.85938,-11.49023 3.72071,-7.60938 -6.60157,-5.50976 0.80079,-2.150399 -14.05079,4.859379 0.64063,4.16992 -2.08008,-0.0781 -3.68945,-7.511719 -1.80078,1.249999 2.24023,-3.228519 -6.36914,1.54883 3.41992,-2.35937 -2.83984,-0.23047 -2.33008,-5.53907 -6.5,-3.41992 -2.73047,1.41992 2.24024,-1.82031 -4.75977,-1.33008 -0.75976,-9.39062 -4.26172,-3.16992 0.25,-4.24024 -6.78907,2.47071 -7.15039,7.56054 -1.60937,-5.66992 -3.25977,2.7793 -2.24023,-3.08008 -1.53125,3.05078 1.95117,-4.41992 -10.89062,5.08984 6.48046,-6.64062 3.05079,0.53515 -0.63086,0.46485 3.41992,0.10937 -0.11719,-0.10351 4.80664,0.84375 7.87109,-2.03907 -0.62109,-1.9707 -22.50976,-0.90039 z m 81.44922,34.30078 -3.92969,0.86914 4.03906,5.480469 -2.69922,9.6211 5.58985,-3.10157 0.23046,5.16016 3.8379,-3.62695 -0.63868,-3.16211 3.85938,-0.0801 4.91015,8.61914 -0.44921,4.57031 -3.65039,-2.10937 -1.58985,2.94922 0.3711,-5.89063 -3.52149,-0.01 1.86133,8.65039 -7.10156,6.32031 5.4414,0.78906 1.08985,-3.35937 0.74023,3.29101 6.20899,-3.27148 11.16992,0.75 -1.76953,-4.96875 2.66992,-1.61133 -13.35938,-13.39844 -9.15039,-5.1914 z m 7.06836,14.402349 0.39257,1.9375 -0.28125,-2.04102 z"
   />
  <path id="Regionen-West" class="region"
    d="m 76.671875,302.53516 -5.039063,1.66992 -8.230468,10.88867 -6.009766,0.21094 -1.541016,4.49023 -2.728515,0.49024 -0.431641,3.20898 9.13086,5.46094 -6.25,9.04883 -3.039063,-1.89844 -13.681641,6.57812 -4.939453,-2.1582 0.650391,4.86914 -18.070312,-7.69922 3,6.26953 -6.490235,-2.45117 -7.580078,4.18164 2.890625,4.20899 -2.2695312,4.54101 5.6484372,2.23828 -0.738281,4.40039 5.359375,1.83985 -1.609375,5.16015 7.808594,9.58008 0.791015,15.33008 -9.830078,12.18945 0.679688,7.1211 5.310547,-2.25 -1.640625,2.16015 2.210937,1.58985 -10.4511718,6.65039 -3.2890624,5.63867 -2.9003907,-3.08984 -3.07031248,1.86132 2.07031248,7.37891 8.1191409,-0.91016 -0.34961,4.99024 4.810547,1.31055 -1.330078,7.53906 -3.509766,0.0703 0.378907,3.09961 -3.2695315,1.88086 3.3496095,2.28906 0.839844,5.47071 5.240234,-0.0605 3.580078,9.37109 5.839844,-0.01 -5.769531,8.42968 3.039062,4.67969 7.931641,0.66016 1.628906,5.26953 -2.240234,5.62109 4.009765,5.73828 -2.75,1.83008 -3.228515,-1.60937 -1.951172,5.25976 -6.589844,3.15039 0.919922,5.22071 -3.160156,1.41015 -1.96875,10.8086 4.208984,10.5 2.919922,0.36132 0.691406,4.95899 5.648438,6.03125 2.509765,-1.23047 4.371094,3.93945 6.240234,0.0996 -0.740234,8.53125 -5.509766,5.33985 -4.65039,9.5 1.419922,2.02929 14.539062,3.19922 21.240234,-11.38867 5.570313,-0.5 124.882805,-45.11913 7.75,-3.44141 2.05859,3.45117 4.43164,-5.6914 -20.25136,-104.85882 11.90512,-70.93935 z" />
	<path id="Regionen-Südwest" class="region"
		d="M 199.30469,520.00586 74.421875,565.125 l -5.570313,0.5 -21.240234,11.38867 -14.539062,-3.19922 -1.011932,7.56394 3.891824,-0.47773 7.559561,4.67746 -0.791016,2.22071 3.890625,3.57031 -2.15039,1.83008 6.570312,6.5293 4.400391,11.25976 6.169921,1.08008 0.160157,-5.79883 5.580078,-1.02148 6.878906,3.18164 1.359375,7.55859 2.701172,-4.11914 3.769531,3.41992 8.720703,0.53906 4.410157,-4.20898 5.089839,-2.48047 -0.460933,1.8711 3.720703,-0.41993 2.17969,6.92969 9.26953,5.08985 7.69141,-2.06055 4.5996,3.12109 4.29883,-2.37109 19.0293,8.90039 -9.09766,15.78906 -7.49023,4.36133 -8.46094,11.18945 -6.79883,23.66992 0.7793,6.42969 -3.29102,2.42969 -7.41015,17.30078 -0.46875,8.2207 3.36914,5.91993 -4.18945,8.81835 -0.55079,13.76172 -2.31835,3.42969 5.00976,10.15039 6.5,-1.03125 -0.41016,3.26953 -3.29101,0.43164 3.7207,2.71875 8.25,-5.23047 4.43945,0.0606 3.24024,4.08985 9.35937,-1.29883 7.36133,-5.95117 11.33008,5.16015 6.62891,-1.06055 -1.92969,-2.26953 4,-2.98047 3.58984,3.60157 3.33008,-4.98047 -1.48047,-2.34961 -8.20898,3.16992 -4.45117,-3.28125 4.98046,-9.08984 5.88086,-1.10938 -0.58007,-2.51953 3.23047,0.86914 0.72851,3.78125 1.61133,-3.90039 2.5293,4.15039 1.85937,-0.82031 0.25,6.72851 4.16992,1.79102 -1.39843,-4.16016 2.44921,-1.83007 5.45899,8.4707 12.39062,-2.9707 32.49024,12.43945 2.4707,-5.16016 7.28906,-0.86914 6.34961,-6.24023 7.15039,2.49023 3.99024,-3.27929 3.16015,4.42968 3.44922,-3.59961 -0.81836,-7.82031 -3.4707,-2.57031 4.73047,-2.1211 -3.80078,-5.36914 3.7207,-23.30078 -4.53125,-16.16992 -6.01953,-9.21875 4.24023,-7.74023 4.39063,-1.76953 4.09961,1.8789 4.08984,-5.1289 4.83985,-1.10157 0.75,-8.21875 -4.30079,-5.41992 0.89063,-3.63086 5.88086,4.75977 3.01953,-4.25977 1.91016,0.43945 -1.74024,3.05079 5.34961,-2.5 -4.98047,-5.72071 2.36133,-10.78906 -1.94141,-4.5293 2.16993,-1.09179 -6.93946,-10.76953 -6.23047,-1.19922 0.0117,-5 -2.62109,-0.90039 2.46094,-4.64063 -7.8711,-4.92969 -0.91015,-5.71875 2.99023,-2.10156 -3.17969,-9.66016 3.48047,-1.63867 -4.31054,-5.07031 1.76953,-6.05078 -3.67969,-3.63867 -2.94922,6.00976 -5.81055,0.0899 -0.76953,-9.54102 -3.58008,3.60156 -3.04101,-0.98046 3.88086,-5.45118 -4.60938,-11.83008 -3.98047,4.23047 -1.66992,-3.86914 -3.63086,3.94922 -1.79882,-1.68945 1.53906,-8.57031 -5.23047,0.85937 -0.35938,3.78125 -3.81054,-4.36133 -11.92969,2.03125 -1.24024,2.92969 4.96094,0.94922 -0.9707,2.41992 1.83984,-2.61914 2.07032,1.90039 -0.83008,6.5 -6.53906,-0.95117 -4.1211,7.25 -8.71875,0.34375 -2.35742,-4.11719 5.14844,-11.92969 -2.57813,-1.75976 1.72852,-2.30078 -2.82032,-0.90039 -0.27929,-5.43946 -3.16992,0.25 -1.15039,-13.20898 1.99023,-1.54102 -1.31055,-4.6289 -3.03711,-0.69532 z m -18.57422,230.14258 -2.88867,2.2207 3.46875,-0.13086 z"
	/>
  <path id="Regionen-Bayern" class="region"
    d="m 266.54957,478.35973 4.25,-4.74 2.19,2.1 3.89,-1.14 1.81,4.31 6.26,1.71 4.13,9.98 3.64,-0.78 2.5,4.63 3.37,-0.87 3.52,3.02 0.5,10.28 6.97,2.54 0.94,-4.64 7.33,0.69 -0.07,-3.07 -8.25,-4.52 -0.16,-2.5 7.57,-4.63 6.6,0.01 3.12,4.44 8.31,-1.88 2.71,3.6 -0.75,4.46 6.71,1.7 2.11,-9.14 -2.34,-11.84 2.75,0.32 3.51,-4.51 5.42,0.95 -0.67,6.69 1.44,2.45 2.55,-1.03 2.5,5.53 16.4,-4.45 2.9,3 6.28,-3.38 v 0 l 3.8,3.49 -0.37,3.76 7.87,3.25 v 0 l 2.5,4.21 -3.09,2.61 7.91,8.04 -1.03,5.88 4.81,3.26 -0.89,1.79 14.6,7.63 -0.77,4.46 4.43,1.51 -4.77,13.22 -4.4,4.33 7.52,5.51 0.4,6.7 2.07,-0.15 1.87,8 3.46,1.41 0.84,8.72 6.38,3.88 1.46,4.67 10.43,0.29 5.41,3.9 9.56,16.27 7.05,1.8 6.64,6.3 0.63,6.49 5.86,4.4 2.33,-3.17 6.21,2.41 2.69,6.67 4.23,-0.57 6.49,11.07 -2.89,5.43 2.73,1.62 -0.91,8.1 -5.83,9.56 -14.19,-7.22 -4.46,3.03 v 12.24 l -6.67,10.02 -19.95,6.51 -16.76,12.54 0.27,5.1 7.15,10.44 4.06,1.87 4.17,8.89 -6.09,11.9 h 6.95 l 4.05,3.45 -2.17,18.38 -2.78,2.65 -13.12,-8.67 -1.03,-2.42 2.8,-2.92 -4.17,-3.65 1.51,-2.1 -11.35,0.07 -1.85,3.78 -5,0.73 -3.74,-6.59 -11.77,1.51 -0.21,-6.02 -5.66,4.03 2.53,8.84 -12.33,-1.8 -10.45,4.07 -13.25,-1.19 -4.09,7.47 -8.91,0.16 -3.14,3.85 2.39,2.61 -5.37,-0.43 -4.41,4.9 -2.84,0.19 1.85,-3.09 -3.03,-0.54 -5.74,3.51 -8.86,-0.17 -2.64,-7.74 -4.22,-0.14 3.08,-2.9 -1.9,-2.25 -6.96,2.15 -11.39,-5.13 -1.67,3.29 -3.1,-0.12 -4.33,-1.93 1.62,-2.79 -2.72,0.08 2.39,14.2 -2.53,4.84 -6.74,7.14 -9.84,3.33 3.89,-10.54 -3.45,-1 -5.4,3.54 -0.33,-9.22 -5.93,-2.78 -1.93,-5.95 -6.19,1.69 -3.75,-1.87 -0.9,-4.44 -4.14,5.81 -8.67,-1.35 v 0 l 2.47,-5.17 7.29,-0.86 6.35,-6.25 7.15,2.49 3.99,-3.28 3.16,4.43 3.45,-3.6 -0.82,-7.82 -3.47,-2.57 4.73,-2.12 -3.8,-5.37 3.72,-23.3 -4.52,-16.17 -6.02,-9.23 4.24,-7.74 4.39,-1.77 4.1,1.88 4.09,-5.13 4.84,-1.1 0.75,-8.22 -4.3,-5.43 0.88,-3.63 5.88,4.76 3.02,-4.27 1.91,0.45 -1.74,3.05 5.35,-2.5 -4.98,-5.73 2.36,-10.79 -1.95,-4.53 2.18,-1.09 -6.95,-10.77 -6.23,-1.2 0.01,-5 -2.62,-0.9 2.46,-4.64 -7.88,-4.93 -0.91,-5.72 2.99,-2.11 -3.18,-9.65 3.48,-1.64 -4.31,-5.08 1.77,-6.04 -3.69,-3.64 -2.95,6.01 -5.8,0.08 -0.78,-9.53 -3.57,3.59 -3.04,-0.98 3.88,-5.45 -4.61,-11.82 -3.98,4.22 -1.67,-3.87 -3.62,3.95 -1.8,-1.69 1.54,-8.57 -5.23,0.86 -0.37,3.78 -3.8,-4.36 -11.93,2.03 -1.24,2.93 4.96,0.95 -0.97,2.42 1.84,-2.61 2.06,1.89 -0.83,6.51 -6.54,-0.96 -4.13,7.25 -8.65,0.34 v 0 l -2.3,-4.13 5.15,-11.93 -2.58,-1.76 1.73,-2.3 -2.82,-0.9 -0.28,-5.44 -3.17,0.25 -1.15,-13.21 1.99,-1.54 -1.31,-4.63 -3.33,-0.76 1.35,-4.32 7.75,-3.44 2.06,3.45 4.43,-5.69 9.48,1.75 4.06,4.65 4.99,-1.01 -0.77,-14.57 10.46,0.81 -0.65,-3.75 5.89,-3.85 0.98,-11.51 8.92,2.13 7.45,-6.29 z"
  />
</g>

<g id="Deutschland">
  <path id="Bremen" class="land"
  	d="M167.33,198.78l0.72,-0.1l0,0l6.18,1.69l-1.23,2.18l2.79,2.05l13.14,0.83l2.17,3.48l5.17,-2.19l2.46,2.73l-2.24,1.09l2.65,2.01l-0.55,5.41l-2.93,3.42l-4.4,-2.78l-2.81,2.1l-3.19,-3.5l-3.43,1.47l-6.32,-13.54l-6.92,-3.24l0,0l0,0l0,0l-1.31,-3.24l0,0L167.33,198.78zM169.27,158.35l8.9,-0.44l-2.71,3.76l0.96,8.47l-3.74,1l-1.17,-3.99l0,0l1.42,-1.84L169.27,158.35z"/>
  <path id="Hamburg" class="land"
  	d="M246.33,163.56L248.94,155.53L253.09,160.38L257.57,153.33L262.18,153.98L263.46,150.25L267.7,150.59L268.7,146.04L274.31,144.08L275.84,145.66L272.71,150.58L277.67,155.3L276.21,160.45L273.15,161.8L273.86,167.23L277,167.42L284.34,175.11L283.21,176.76L283.21,176.76L278.78,180.74L274.68,180.74L266.87,173.56L262.59,178.61L258.16,178.86L257.4,174.35L254.73,177.15L251.25,173.6L249.16,163.92z"/>
  <path id="Niedersachsen" class="land"
  	d="M60.4,159.06l-6.04,1.6l1.74,3.04l-5.74,-3.15l6.06,-3.78L60.4,159.06zM97.87,144.43l2.35,1.9l-4.99,-0.89L97.87,144.43zM109.16,141.9l3.35,1.47l-10.55,2.34l0.91,-3.27L109.16,141.9zM118.39,139.44l6,1.1l-9.43,1.86L118.39,139.44zM129.41,138.01l4.77,2.17l-7.91,-1.23L129.41,138.01zM179.97,127.51l5.23,5.99l7.84,1.37l8.04,-1.86l-1.01,-3.55l0,0l13.06,-0.56l6.67,2.83l12.21,17.13l2.84,8.25l11.48,6.46l0,0l2.83,0.35l2.08,9.69l3.48,3.54l2.68,-2.8l0.75,4.5l4.44,-0.25l4.28,-5.05l7.81,7.18h4.1l4.43,-3.98l0,0l18.28,7.39l0,0l6.65,-0.68l8.65,7.03l5.27,-4.67l4.42,1.59l6.5,12.73l6.83,3.55l-0.82,4.63l5.31,1.53l0,0l4.55,7.01l7.29,-2.44l9.3,4.54l0,0l-2.7,3.89l-2.98,-0.7l-0.45,6.88l-12.05,6.6l-19.61,-3.49l-4.16,6.16l-11.02,1.12l1.98,13.53l1.93,-0.26l5.79,11.2l3.61,-1.46l-2.47,5.88l4.52,7.55l-4.03,0.18l-0.71,3.44l8.97,8.94l-5.84,3.47l6.5,11.69l-4.59,3.15l2.97,2.63l-0.96,4.01l-6.47,3.21l1.43,4.79l-16.92,0.71l-8.8,4.69l5.67,4.84l-2.42,1.99l2.34,4.9l-4.6,4.32l-0.2,3.87l8.03,17.4l0,0l-3.96,2.24l1.14,6.25l-3.23,-2.15l-5.53,2.62l-5.49,-3.91l-4.01,0.48l-4.54,9.57l-4.16,2.37l-2,-1.58l-3.07,5.57l-5.45,1.37l-1.4,-1.95l-7.55,6.33l0,0l-1.67,-4.3l-3.25,0.31l0.92,4.38l-4.44,-3.72l0.19,2.28l-6.15,2.2l2.35,4.52l2.14,-1.75l-2.47,4.21l-11,-5.05l-1.91,-2.26l2.36,0.51l0.61,-3.99l4.2,-1.72l-0.08,-5.32l-3.63,-4.73l1.26,-4.53l2.61,0.98l-1.06,-3.33l3.82,0.73l-4.05,-6.03l-11.14,-1.08l0,0l-4.86,-0.35l0.01,-9.56l4.54,-5.24l0.89,-6.85l-8.64,0.73l1.04,-5.53l-4.3,-2.48l0.06,-4.22l-4.21,1.27l-2.11,-2.07l1.21,-9.22l-3.83,-2.61l1.27,-3.61l-9.09,-0.57l-1.66,-6.2l3.7,1.13l-0.5,-4.2l2.61,-0.77l-7.08,-5.01l10.03,-12.94l-1.83,-4.11l2.7,-3.43l-2.38,-2.18l-3,-0.29l-7.38,10.27l-5.19,1.29l-9.48,-0.64l-0.33,-11.32l-3.23,-2.83l-6.02,3.41l-3.47,-1.36l-5.41,7.04l-7.26,-1.47l0.85,5.74l8.13,4.31l-0.09,15.3l4.74,3.12l-7.04,7.64l-7.68,-2.54l-5.97,6.44l-10.21,0.4l-3.27,3.45l-6.11,-4.99l7.84,-3.25l1.17,-4.9l-7.94,-4.33l3.57,-6.49l-1.59,-3.61l3.82,-0.74l-3.51,-5.79l-14.26,-3.71l-1.57,-5.4l-5.14,-2.29l-2.74,4.46l2.44,1.08l-1.28,4.74l-18.29,11.56l-14.88,2.32l0,0l-2.39,-5.02l3.02,-8.69l-5.28,-9.79l-3.12,3.39l-11.76,-2.84l-3.81,-2.53l-1.13,-6.92l5.53,-1.08l-3.48,-6.68l2.53,-2.25l19.34,0.57l2.08,-21.73l8.28,-16.56l-2.42,-13.97l3.04,-4.26l-1.13,-6.84l2.29,-8.14l4.02,-0.19l-18.76,-2.27l1.21,-20.46l4.21,3.68l-3.7,-3.96l4.04,2.69l2.51,-3.23l-3.45,-3.97l9.89,-9.75l7.43,-1.81l10.45,1.73l11.38,-5.21l0.02,2.11l6.55,-1.16l1.8,-2.54l-1.58,2.92l13.81,-0.12l1.09,7.07l4.65,0.61l3.51,10.82l-7.1,3.26l0.18,3.1l8.78,7.68l4.21,-0.14l2.93,-5.51l-0.19,-6.81l-5.28,0.11l3.42,-9.74l3.58,-0.12l8.07,6.35l3.47,-0.63l2.41,3.76l0,0l1.17,3.99l3.74,-1l-0.96,-8.47l2.71,-3.76l-8.9,0.44l0,0l-2.48,-9.53l4.18,-12.99l4.08,-7.1L179.97,127.51zM167.27,198.66L167.27,198.66l1.31,3.24l6.92,3.24l6.32,13.54l3.43,-1.47l3.19,3.5l2.81,-2.1l4.4,2.78l2.93,-3.42l0.55,-5.41l-2.65,-2.01l2.24,-1.09l-2.46,-2.73l-5.17,2.19l-2.17,-3.48l-13.14,-0.83l-2.79,-2.05l1.23,-2.18l-6.18,-1.69L167.27,198.66z"/>
  <path id="Schleswig-Holstein" class="land"
  	d="M166.82,66.59l2.35,2.45l-1.94,1.67l-2.67,-4.29L166.82,66.59zM332.49,58.08l9.41,2.94l5.37,11.14l-7.81,-2.19l-4.48,2.14l-2.14,-4.95l-4.11,0.5l1.58,1.6l-2.51,-1.5l1.31,-7.3L332.49,58.08zM167.37,57.79l-0.91,4.28l-1.17,-5.25L167.37,57.79zM180.99,55.13l-0.17,6.25l-5.39,1.13L173.59,58L180.99,55.13zM171.44,52.84l1.27,2.23l-4.19,-2.04L171.44,52.84zM160.46,46.18l0.94,2.71l-2.42,0.45l-4.45,-6.2l4.47,-5.15l-1.37,2.73L160.46,46.18zM169.54,33.33l3.91,1.16l-1.25,7.3l-10.71,-2.42l1.81,-5.03L169.54,33.33zM163.97,0.73l1.77,0.6l-4.43,0.14l2.81,3.28l-5.56,5.21l1.11,7.58l3.58,2.32l11.07,-1.05l2.19,-2.65l19.86,0.96l18.37,5.74l0.89,4.46l2.86,0.97l3.16,0.14l4.19,-4.6l1.73,5.88l11.27,-9.7l-0.47,5.07l12.03,3.77l3.84,4.81l3.35,-1.14l-0.01,-3.72l3.27,1.96l5.13,10.28l-2.49,-0.09l2.35,1.88l-0.49,13.02l-4,5.24L253,64.29l2.07,2.87l16.57,-4.02l4.75,3.21l-4.27,15.75l3.28,-1.77l2.68,-9.43l6.21,-2.37l17.55,7.84l6.6,6.44l5.49,-0.85l8.99,-7.58l6.01,1.51l5.56,-3.27l0.84,2.82l-4.37,2.11l2.28,16.93l-14.19,12.24l-3.89,-2.32l-3.69,6.28l2.12,5.41l5.44,0.71l2.12,3.81l0,0l-0.66,3.64l4.59,1.62l-3.45,1.03l-1.96,-2.87l-6.93,5.62l-0.85,13.02l5.85,5.36l4.63,0.29l1.86,5.47l-2.65,8.29l-5.62,-0.36l0.17,6.55l-12.25,6.35l-2.42,9.56l0,0l-18.28,-7.39l0,0l1.13,-1.65l-7.34,-7.69l-3.15,-0.18l-0.71,-5.44l3.07,-1.35l1.46,-5.15l-4.96,-4.72l3.12,-4.92l-1.53,-1.58l-5.61,1.96l-1,4.55l-4.24,-0.34l-1.27,3.73l-4.62,-0.65l-4.48,7.05l-4.14,-4.86l-2.61,8.04l0,0l-11.48,-6.46l-2.84,-8.25l-12.21,-17.13l-6.67,-2.83l-13.06,0.56l0,0l-6.27,-6.5l-1.5,-7.38l-4.91,-2.29l4.75,-2.33l5.01,1.18l1.7,-2.38l-3.64,-7.99l-4.47,1.29l-3.12,-5.67l1.94,-12.13l-8.27,-0.65l-2.03,2.44L173,82.47l1.71,-5.06l2.16,1.62l3.1,-1.96l-5.35,-1.38l0.8,-2.11l16.15,-2.02l11.39,-7.45l-3.03,-0.39l-1.19,-4.4l-5.54,6.62l-5.8,-1.17l5.53,-13.43l-0.83,-1.84l-4.22,1.34l2.68,-2.28l-10.42,-11.71l-5.97,-17.46L162.4,23.4l-4.71,-3.58l-3.78,14.22l1.04,-17.71l6.25,-15.67L163.97,0.73z"/>
  <path id="Nordrhein-Westfalen" class="land"
  	d="M76.38,302.23L91.26,299.91L109.56,288.35L110.84,283.61L108.4,282.53L111.14,278.07L116.27,280.36L117.84,285.76L132.1,289.47L135.61,295.25L131.79,295.99L133.38,299.6L129.81,306.09L137.75,310.42L136.58,315.32L128.74,318.57L134.84,323.57L138.11,320.12L148.32,319.71L154.29,313.27L161.97,315.81L169,308.17L164.26,305.05L164.35,289.75L156.22,285.44L155.37,279.7L162.63,281.17L168.04,274.14L171.52,275.49L177.54,272.09L180.77,274.92L181.1,286.24L190.58,286.88L195.77,285.58L203.15,275.32L206.15,275.61L208.53,277.79L205.83,281.23L207.66,285.33L197.63,298.27L204.71,303.28L202.09,304.04L202.59,308.25L198.89,307.12L200.54,313.31L209.63,313.88L208.36,317.5L212.19,320.1L210.98,329.32L213.09,331.4L217.31,330.13L217.25,334.35L221.55,336.83L220.51,342.36L229.15,341.63L228.26,348.48L223.71,353.72L223.71,363.28L228.57,363.63L228.57,363.63L221.31,366.92L223.52,369.32L213.6,382.79L205.92,384.27L205.64,379.11L201,376.79L192.88,380.49L196.45,386.03L195.87,389.93L180.31,391.22L175.59,395.35L171.58,401.32L174.03,404.39L182.08,401.69L184.98,408.27L180.44,415.53L181.98,418.31L168.09,421.33L170.31,427.46L165.28,432.87L165.39,437.61L158.94,443.44L153.07,441.46L144.6,450.64L146.74,456.2L144.01,461.08L144.01,461.08L138.65,459.88L134.03,452.04L134.05,444.96L125.1,441.26L126.51,436.67L122.85,435.21L119.22,437.66L120.94,445.04L114.44,447.46L115.13,451.42L110.08,455.63L96.22,457.75L93.72,465.7L85.91,467.3L85.17,464.78L81.7,469.61L79.69,468.42L78.04,471.05L75.88,469.03L72.18,473.18L67.87,473.6L67.91,476.25L64.81,476.88L65.96,482.74L63.25,484.33L59.61,480.43L56.06,482.31L59.52,493.57L53.31,496L51.25,492.58L49.29,495.2L46.99,490.88L37.45,495.98L34.92,490.75L34.4,497.38L34.4,497.38L30.39,491.64L32.63,486.02L31,480.75L23.07,480.09L20.03,475.41L25.8,466.98L19.96,466.99L16.38,457.62L11.14,457.68L10.3,452.21L6.95,449.92L10.22,448.04L9.84,444.94L13.35,444.87L14.68,437.33L9.87,436.02L10.22,431.03L2.1,431.94L0.03,424.56L3.1,422.7L6,425.79L9.29,420.15L19.74,413.5L17.53,411.91L19.17,409.75L13.86,412L13.18,404.88L23.01,392.69L22.22,377.36L14.41,367.78L16.02,362.62L10.66,360.78L11.4,356.38L5.75,354.14L8.02,349.6L5.13,345.39L12.71,341.21L19.2,343.66L16.2,337.39L34.27,345.09L33.62,340.22L38.56,342.38L52.24,335.8L55.28,337.7L61.53,328.65L52.4,323.19L52.83,319.98L55.56,319.49L57.1,315L63.11,314.79L71.34,303.9z"/>
  <path id="Rheinland-Pfalz" class="land"
  	d="M34.4,497.38L34.92,490.75L37.45,495.98L46.99,490.88L49.29,495.2L51.25,492.58L53.31,496L59.52,493.57L56.06,482.31L59.61,480.43L63.25,484.33L65.96,482.74L64.81,476.88L67.91,476.25L67.87,473.6L72.18,473.18L75.88,469.03L78.04,471.05L79.69,468.42L81.7,469.61L85.17,464.78L85.91,467.3L93.72,465.7L96.22,457.75L110.08,455.63L115.13,451.42L114.44,447.46L120.94,445.04L119.22,437.66L122.85,435.21L126.51,436.67L125.1,441.26L134.05,444.96L134.03,452.04L138.65,459.88L144.01,461.08L144.01,461.08L144.72,474.55L142.66,476.29L138.86,473.89L135.78,477.16L136.77,484.32L133.79,488.56L139.92,492.22L143.7,499.7L142.89,503.54L138.42,502.49L138.18,507.96L135.33,505.79L130.36,509.21L128.71,512.68L131.78,515.09L131.62,519.2L126.65,516.79L125.77,521.07L121.66,523.67L128.79,532.15L147.81,525.89L156.62,531.69L160.28,546.83L163.07,552.18L166.61,552.81L158.96,559.7L162.99,570.34L162.99,570.34L164.27,583.42L168.4,584.91L164.76,595.65L167.19,598.55L160.95,604.42L158.93,617.43L150.88,630.49L150.88,630.49L131.83,621.58L127.53,623.95L122.93,620.83L115.24,622.89L105.97,617.8L103.79,610.87L100.07,611.29L100.53,609.42L95.44,611.9L95.44,611.9L90.8,604.11L96.92,598.67L97.9,591.28L90.86,589.38L88.35,585.05L91.78,580.99L89.4,570.28L86,572.11L74.13,564.82L68.56,565.32L47.32,576.71L32.78,573.51L32.78,573.51L31.36,571.48L36.01,561.98L41.52,556.64L42.26,548.11L36.02,548.01L31.65,544.07L29.14,545.3L23.49,539.27L22.8,534.31L19.88,533.95L15.67,523.45L17.64,512.64L20.8,511.23L19.88,506.01L26.47,502.86L28.42,497.6L31.65,499.21z"/>
  <path id="Berlin" class="land"
  	d="M485.13,257.7L485.2,257.74L485.2,257.74L488.12,260.2L487.19,265.7L496.58,272.25L493.65,278.32L503.07,281.3L496.02,292.2L495.77,288.21L485.31,286.24L484.46,283.74L481.5,284.77L481.48,288.32L473.68,284.09L462.87,286.78L460.54,284.53L465.46,274.35L462.28,273.56L463.02,266.3L468.62,266.16L468.88,261.95L471.62,262.01L472.85,258.49L477.73,262.39L484.8,259.5L484.07,257.58L484.07,257.58L484.98,257.05L484.98,257.05L485.36,257.16L485.36,257.16z"/>
  <path id="Brandenburg" class="land"
  	d="M344.3,209.85l8.02,1.19l1.8,-3.16l7.08,1.66l1.2,-8.96l7.4,-3.75l4.06,2.84l5.54,-0.75l-1.38,-3.02l4.06,0.48l10.37,-5.54l1.53,-7.65l7.88,3.47l3.88,-2.05l1.78,3.73l8.55,2.52l3.33,5.44l13.8,-0.45l1.43,2.9l4.58,0.3l0.85,3.82l12.47,-1.39l-1.35,2.75l3.96,0.87l9.22,-8.82l5.16,3.63l4.42,-6.82l6.74,3.41l1.96,-5.34l3.03,0.62l2.39,-2.91l1.82,-8.42l4.82,-1.24l5.59,-7.61l6.29,-0.43l-2.43,-3.12l1.17,-4.79l5.37,5.8l2.49,8.85l20.64,-0.67l-0.89,7.39L524.76,195l10.43,0.28l3.57,-5.47l6.01,-2.08l0,0l2.24,7.22l-4.5,6.74l-0.82,12.83l-13.97,12.39l1.04,8.08l-2.41,4.88l14.57,9.2l18.26,18.7l-2.18,4.03l1.88,4.48l-6.32,9.97l3.71,12.6l7.73,3.9l-2.04,12.46l4.91,5.25l-4.07,16.95l-6.63,7.67l10.62,17.16l-1.73,7.98l0,0l-2.12,-1.61l-1.12,4.56l-4.09,0.3l-3.03,-3.09l-11.42,3.93l-3.51,3.93l-12.47,-4.08l-3.16,6.77l-3.47,0.11l1.82,3.13l-4.07,7.31l-2.52,-2.38l-11.84,3.46l-14.67,-0.7l-9.17,-8.53l-1.34,2.87l-3.49,-1.17l-3.59,5.3l-3.34,-1.15l-2.51,-3.24l2.05,-9.8l-4.06,-4.59l1.12,-2.54l-6.89,-5.4l0,0l8.48,-7.22l-2.99,-16.74l-6.2,0.89l0.25,-2.97l-4.62,0.05l-0.97,-3.69h-6.75l-0.47,-3.38l-4.14,0.53l-6.92,-5.08l-3.75,3.09l-4.62,-0.36l-3.86,-4.92l-2.84,1.76l-13.81,-15.78l5.04,-6.12l-3.3,-2.48l3.94,-9.8l-2.16,-7.13l3.66,-6.58l-5.64,-4.62l-3.65,2.66l0.29,-3.85l-2.94,0.24l1.64,-9.97l3.81,-0.42l-1.96,-9.34l3.75,-9.1l-1.54,-5.94l-2.51,-1.75l-4.4,2.67l-0.12,-4.27l-9.2,1.93l-9.36,-3.58l0.63,-4.53l-6.5,-3.88l-3.03,1.23l-1.1,-3.25l-3.23,-0.37l0.88,-2.82l-2.52,0.24l0,0l-9.3,-4.54l-7.29,2.44L344.3,209.85zM484.8,259.5l-7.07,2.89l-4.88,-3.9l-1.23,3.52l-2.74,-0.06l-0.25,4.21l-5.6,0.15l-0.75,7.26l3.18,0.78l-4.92,10.19l2.33,2.25l10.8,-2.69l7.8,4.23l0.02,-3.55l2.96,-1.03l0.85,2.5l10.45,1.97l0.25,3.99l7.05,-10.9l-9.42,-2.97l2.93,-6.08l-9.39,-6.55l0.93,-5.5l-2.92,-2.46l0,0l0.17,-0.58l0,0l-0.38,-0.1l0,0l-0.91,0.52L484.8,259.5z"/>
  <path id="Mecklenburg-Vorpommern" class="land"
  	d="M506.34,97.76l4.16,7.29l9.15,5.19l13.36,13.4l-2.67,1.61l1.77,4.97l-11.17,-0.75l-6.21,3.27l-0.74,-3.29l-1.09,3.36l-5.44,-0.79l7.1,-6.32l-1.86,-8.65l3.52,0.01l-0.37,5.89l1.59,-2.95l3.65,2.11l0.45,-4.57l-4.91,-8.62l-3.86,0.08l1.03,5.1l-0.28,-2.04l-3.95,3.73l-0.23,-5.16l-5.59,3.1l2.7,-9.62l-4.04,-5.48L506.34,97.76zM435.9,69.27l1.61,1.44l-3.42,-0.11L435.9,69.27zM424.89,63.46l2.05,3.08l22.51,0.9l0.62,1.97l-7.87,2.04l-10.53,-1.85l-6.48,6.64l10.89,-5.09l-1.95,4.42l1.53,-3.05l2.24,3.08l3.26,-2.78l1.61,5.67l7.15,-7.56l6.79,-2.47l-0.25,4.24l4.26,3.17l0.76,9.39l4.76,1.33L464,88.41l2.73,-1.42l6.5,3.42l2.33,5.54l2.84,0.23l-3.42,2.36l6.37,-1.55l-2.24,3.23l1.8,-1.25l3.69,7.51l2.08,0.08l-0.64,-4.17l14.05,-4.86l-0.8,2.15l6.6,5.51l-3.72,7.61l10.86,11.49l-5.72,4.9l-0.46,3.65l18.19,11.06l10.48,-0.91l-3.31,4.93l4.15,1.7l8.41,38.14l0,0l-6.01,2.08l-3.57,5.47L524.76,195l8.17,-10.36l0.89,-7.39l-20.64,0.67l-2.49,-8.85l-5.37,-5.8l-1.17,4.79l2.43,3.12l-6.29,0.43l-5.59,7.61l-4.82,1.24l-1.82,8.42l-2.39,2.91l-3.03,-0.62l-1.96,5.34l-6.74,-3.41l-4.42,6.82l-5.16,-3.63l-9.22,8.82l-3.96,-0.87l1.35,-2.75l-12.47,1.39l-0.85,-3.82l-4.58,-0.3l-1.43,-2.9l-13.8,0.45l-3.33,-5.44l-8.55,-2.52l-1.78,-3.73l-3.88,2.05l-7.88,-3.47l-1.53,7.65l-10.37,5.54l-4.06,-0.48l1.38,3.02l-5.54,0.75l-4.06,-2.84l-7.4,3.75l-1.2,8.96l-7.08,-1.66l-1.8,3.16l-8.02,-1.19l0,0l-5.31,-1.53l0.82,-4.63l-6.83,-3.55l-6.5,-12.73l-4.42,-1.59l-5.27,4.67l-8.65,-7.03l-6.65,0.68l0,0l2.42,-9.56l12.25,-6.35l-0.17,-6.55l5.62,0.36l2.65,-8.29l-1.86,-5.47l-4.63,-0.29l-5.85,-5.36l0.85,-13.02l6.93,-5.62l1.96,2.87l3.45,-1.03l-4.59,-1.62l0.66,-3.64l0,0l8.62,-5.35l8.99,-0.97l5.08,3.39l-0.13,5.23l4.98,-2.57l7.9,6.75l1.52,-7.62l-2.42,0.9l-0.06,-4.29L354.8,120l-2.75,-0.41l-0.14,-3.94l6.66,-2.2l-0.02,5.96l1.88,-6.97l3.46,-0.25l3.28,-6.13l-1.35,-1.37l-4.67,5.94l-0.27,-2.75l9.71,-8.54l10.65,0.8l17.71,-4.2l3.87,-5.85l9.57,-6.35L424.89,63.46zM464.13,50.28l-5.16,15.79l2.21,-14.48L464.13,50.28zM482.31,41.36l-3.58,5.45l2.77,6.09l13.64,-0.74l2.81,2.3l-6.61,12.74l2.47,4.76l3.76,0.38l5.99,6.49l-3.54,7.89l-0.54,-3l-3.58,-0.14l3.71,-3.18l-5.99,1.1l4.77,-3.81l-4.41,2.36L492,77.51l-5.2,1.21l-9.55,7.89l0.34,2.53l0.46,-1.89l3.38,1.09l-1.64,3.56l-6.46,-3.18l1.98,0.57l0.78,-3.61l-4.17,2.7l-4.35,-1.79l-0.39,-2.88l-3.42,1.6l2.85,-2l-4.49,-3.49l0.83,-4.21l8.47,-1.45l-3.12,-4.98l-3.91,0.79l1.8,-3.63l-3.64,0.9l3.07,-4.87l3.67,0.83l-1.8,4.08l4.56,-3.56l-2.7,-0.61l0.18,-2.75l-3.88,0.31L464,56.46l6.37,-0.96l3.81,4.46l-0.45,-4.24l3.66,-2.99l-1.02,3.48l2.34,-1.22l2.35,7.22l2.45,2.46l3.33,-1.08l0.54,-9.21l-4.2,1.51l-4.83,-6.9l-8.04,6.07l2.62,-9.48l-7.86,9.54l5.41,-10.88L482.31,41.36z"/>
  <path id="Sachsen" class="land"
  	d="M409.06,420.36L403.51,415.05L403.77,405.34L400.41,396.85L403.55,395.99L400.5,382.43L404.19,379.5L405.85,372.11L418.09,370.21L419.2,367.43L421.97,368.9L430.88,365.69L429.82,367.29L435.07,361.75L440.17,363.52L444.84,359.68L451.1,364.45L453.48,361.28L458.17,363.61L458.17,363.61L465.06,369.01L463.95,371.54L468.01,376.13L465.95,385.93L468.46,389.17L471.8,390.33L475.4,385.03L478.89,386.2L480.23,383.33L489.4,391.86L504.07,392.57L515.91,389.1L518.43,391.49L522.5,384.18L520.68,381.05L524.16,380.93L527.32,374.16L539.79,378.24L543.3,374.3L554.72,370.38L557.76,373.47L561.84,373.17L562.96,368.61L565.08,370.21L565.08,370.21L565.46,375.9L579.17,381.68L580.87,394.65L584.98,401.69L580.86,421.64L569.28,447.49L558.02,443.73L559.96,436.33L554.58,437.64L556.68,430.81L550.29,427.18L550.48,424.72L549.9,427.06L544.64,427.52L537.82,423.85L535.1,430.7L539.27,430.96L538.35,434L543.85,435.87L543.2,439.71L535.53,440.02L523.44,448.37L512.17,450.25L512.04,455.14L509.38,456.85L488.35,459.06L488.24,465.7L484.54,469.3L478.5,464.63L475.36,471.66L470.54,470.42L467.23,479.28L456.82,478.64L456.11,484.77L451.41,489.31L443.25,483.66L442.67,486.5L441.71,484.71L437.9,486.39L436.06,489.9L433.92,487.95L423.7,489.94L412.12,505.41L412.5,512.26L409.51,511.86L409.75,507.48L406.3,504.99L407.28,502.51L403.83,502.33L402.79,497.38L397.47,497.79L397.47,497.79L389.6,494.54L389.97,490.78L386.17,487.29L386.17,487.29L384.37,484.79L387.82,484.27L388.86,480.96L382.78,475.87L391.14,466.23L394.64,474.55L396.15,472.01L401.44,471.96L400.58,466.68L403.18,468.31L403.78,465.78L407.84,466.63L411.24,463.28L407.72,460.17L407.97,455.85L405.43,455.76L409.46,451.27L407,447.48L413.15,447.22L414.87,444.14L419.12,445.23L421.83,440.04L432.72,437.54L429.76,429.79L423.35,427.71L423.1,423.08L412.5,419.03z"/>
  <path id="Sachsen-Anhalt" class="land"
  	d="M365.45,218.95L367.97,218.71L367.09,221.53L370.32,221.9L371.42,225.16L374.45,223.93L380.95,227.81L380.32,232.33L389.68,235.92L398.88,233.99L399,238.25L403.4,235.59L405.91,237.34L407.45,243.27L403.7,252.38L405.66,261.72L401.86,262.14L400.21,272.11L403.15,271.87L402.87,275.71L406.51,273.05L412.15,277.67L408.49,284.25L410.65,291.37L406.71,301.18L410.01,303.66L404.97,309.78L418.78,325.56L421.61,323.81L425.47,328.72L430.09,329.08L433.84,326L440.76,331.08L444.91,330.55L445.38,333.93L452.13,333.93L453.1,337.62L457.72,337.57L457.46,340.54L463.67,339.65L466.65,356.39L458.17,363.61L458.17,363.61L453.48,361.28L451.1,364.45L444.84,359.68L440.17,363.52L435.07,361.75L429.82,367.29L430.88,365.69L421.97,368.9L419.2,367.43L418.09,370.21L405.85,372.11L404.19,379.5L400.5,382.43L403.55,395.99L400.41,396.85L403.77,405.34L403.51,415.05L409.06,420.36L409.06,420.36L406.94,425.62L409.56,427.41L404.76,435.61L402.78,431.91L392.16,432.77L384.1,423.91L375.7,425.21L369.96,418.22L358.26,419.09L357.31,409.95L350.71,407.1L357.69,399.43L352.63,390.75L347.7,387.76L326.79,386.99L323.84,374.77L320.02,370.61L320.54,368.2L322.79,369.28L322.26,366.55L308.21,364.11L308.21,364.11L300.18,346.71L300.39,342.85L304.98,338.52L302.64,333.62L305.06,331.63L299.4,326.79L308.2,322.1L325.12,321.39L323.69,316.6L330.16,313.39L331.12,309.38L328.15,306.74L332.74,303.59L326.25,291.89L332.08,288.43L323.11,279.48L323.82,276.04L327.85,275.86L323.33,268.31L325.79,262.43L322.18,263.89L316.39,252.69L314.46,252.95L312.48,239.42L323.5,238.31L327.66,232.14L347.27,235.63L359.32,229.03L359.76,222.15L362.75,222.84z"/>
  <path id="Thüringen" class="land"
  	d="M308.21,364.11L322.26,366.55L322.79,369.28L320.54,368.2L320.02,370.61L323.84,374.77L326.79,386.99L347.7,387.76L352.63,390.75L357.69,399.43L350.71,407.1L357.31,409.95L358.26,419.09L369.96,418.22L375.7,425.21L384.1,423.91L392.16,432.77L402.78,431.91L404.76,435.61L409.56,427.41L406.94,425.62L409.06,420.36L409.06,420.36L412.5,419.03L423.1,423.08L423.35,427.71L429.76,429.79L432.72,437.54L421.83,440.04L419.12,445.23L414.87,444.14L413.15,447.22L407,447.48L409.46,451.27L405.43,455.76L407.97,455.85L407.72,460.17L411.24,463.28L407.84,466.63L403.78,465.78L403.18,468.31L400.58,466.68L401.44,471.96L396.15,472.01L394.64,474.55L391.14,466.23L382.78,475.87L388.86,480.96L387.82,484.27L384.37,484.79L386.17,487.29L386.17,487.29L379.89,490.67L376.99,487.67L360.59,492.12L358.09,486.59L355.54,487.62L354.1,485.17L354.77,478.48L349.35,477.53L345.84,482.04L343.09,481.72L345.43,493.56L343.32,502.7L336.61,501L337.36,496.54L334.65,492.94L326.34,494.82L323.22,490.38L316.62,490.37L309.05,495L309.21,497.5L317.46,502.02L317.53,505.09L310.2,504.4L309.26,509.04L302.29,506.5L301.79,496.22L298.27,493.2L294.9,494.07L292.4,489.44L288.76,490.22L284.63,480.24L278.37,478.53L276.56,474.22L272.67,475.36L270.48,473.26L266.23,478L266.23,478L265.93,468.54L268.82,467.35L267,462.49L260.6,462.87L261,466.66L255.68,465.57L260.55,447.42L265.3,446.07L267.42,441.23L264.33,437.27L261.76,438.66L262.79,436.27L260.4,435.21L267.6,434.96L264.81,431.25L266.07,428.06L276.6,428.59L276.66,425.82L272.55,423.36L274.68,417.62L271.17,415.3L274.12,413.9L276.22,417.97L278.65,410.58L267.92,406.43L267.08,401.15L261.78,400.55L258.96,391.32L258.96,391.32L266.51,385L267.91,386.94L273.36,385.58L276.44,380.01L278.43,381.59L282.59,379.22L287.13,369.65L291.14,369.17L296.62,373.08L302.16,370.46L305.39,372.61L304.25,366.35z"/>
  <path id="Baden-Württemberg" class="land"
  	d="M180.99,750.43l0.58,2.09l-3.47,0.13L180.99,750.43zM206.4,570.93l8.66,-0.33l4.12,-7.25l6.54,0.95l0.83,-6.5l-2.07,-1.9l-1.84,2.62l0.97,-2.42l-4.96,-0.95l1.24,-2.93l11.93,-2.03l3.81,4.36l0.36,-3.78l5.23,-0.86l-1.54,8.57l1.8,1.69l3.63,-3.95l1.67,3.87l3.98,-4.23l4.61,11.83l-3.88,5.45l3.04,0.98l3.58,-3.6l0.77,9.54l5.81,-0.09l2.95,-6.01l3.68,3.64l-1.77,6.05l4.31,5.07l-3.48,1.64l3.18,9.66l-2.99,2.1l0.91,5.72l7.87,4.93l-2.46,4.64l2.62,0.9l-0.01,5l6.23,1.2l6.94,10.77l-2.17,1.09l1.94,4.53l-2.36,10.79l4.98,5.72l-5.35,2.5l1.74,-3.05l-1.91,-0.44l-3.02,4.26l-5.88,-4.76l-0.89,3.63l4.3,5.42l-0.75,8.22l-4.84,1.1l-4.09,5.13l-4.1,-1.88l-4.39,1.77l-4.24,7.74l6.02,9.22l4.53,16.17l-3.72,23.3l3.8,5.37l-4.73,2.12l3.47,2.57l0.82,7.82l-3.45,3.6l-3.16,-4.43l-3.99,3.28l-7.15,-2.49l-6.35,6.24l-7.29,0.87l-2.47,5.16l0,0l-32.49,-12.44l-12.39,2.97l-5.46,-8.47l-2.45,1.83l1.4,4.16l-4.17,-1.79l-0.25,-6.73l-1.86,0.82l-2.53,-4.15l-1.61,3.9l-0.73,-3.78l-3.23,-0.87l0.58,2.52l-5.88,1.11l-4.98,9.09l4.45,3.28l8.21,-3.17l1.48,2.35l-3.33,4.98l-3.59,-3.6l-4,2.98l1.93,2.27l-6.63,1.06l-11.33,-5.16l-7.36,5.95l-9.36,1.3l-3.24,-4.09l-4.44,-0.06l-8.25,5.23l-3.72,-2.72l3.29,-0.43l0.41,-3.27l-6.5,1.03l-5.01,-10.15l2.32,-3.43l0.55,-13.76l4.19,-8.82l-3.37,-5.92l0.47,-8.22l7.41,-17.3l3.29,-2.43l-0.78,-6.43l6.8,-23.67l8.46,-11.19l7.49,-4.36l9.11,-15.81l0,0l8.06,-13.06l2.02,-13.01l6.23,-5.87l-2.43,-2.9l3.64,-10.75l-4.12,-1.49l-1.29,-13.08l0,0l3.37,0.03l5.46,6.77l3.5,-2.61l-1.32,-6.75l6.19,-1.33l0.61,8.58l7.72,1.09l0.59,3.21l4.26,-1.08l-1.4,3.51l-3.26,-0.13l-1.54,5.66l3.08,1.47l6.37,-5.89l0.1,-4.73l11.14,-1.27l-3.41,-4.71L206.4,570.93z"/>
  <path id="Saarland" class="land"
  	d="M32.78,573.51L47.32,576.71L68.56,565.32L74.13,564.82L86,572.11L89.4,570.28L91.78,580.99L88.35,585.05L90.86,589.38L97.9,591.28L96.92,598.67L90.8,604.11L95.44,611.9L95.44,611.9L91.03,616.11L82.31,615.57L78.54,612.15L75.84,616.27L74.48,608.71L67.6,605.53L62.02,606.55L61.86,612.35L55.69,611.27L51.29,600.01L44.72,593.48L46.87,591.65L42.98,588.08L43.77,585.86L35.9,580.85L31.98,581.4z"/>
  <path id="Hessen" class="land"
  	d="M228.57,363.63L239.71,364.71L243.77,370.74L239.94,370.01L241.01,373.34L238.39,372.36L237.13,376.89L240.77,381.62L240.85,386.94L236.65,388.67L236.04,392.66L233.68,392.15L235.59,394.41L246.59,399.46L249.05,395.24L246.92,396.99L244.56,392.48L250.72,390.28L250.53,387.99L254.96,391.71L254.04,387.33L257.29,387.02L258.96,391.32L258.96,391.32L261.78,400.55L267.08,401.15L267.92,406.43L278.65,410.58L276.22,417.97L274.12,413.9L271.17,415.3L274.68,417.62L272.55,423.36L276.66,425.82L276.6,428.59L266.07,428.06L264.81,431.25L267.6,434.96L260.4,435.21L262.79,436.27L261.76,438.66L264.33,437.27L267.42,441.23L265.3,446.07L260.55,447.42L255.68,465.57L261,466.66L260.6,462.87L267,462.49L268.82,467.35L265.93,468.54L266.23,478L266.23,478L264.73,482.94L257.28,489.23L248.36,487.1L247.38,498.61L241.49,502.46L242.14,506.21L231.68,505.4L232.45,519.97L227.46,520.98L223.4,516.33L213.92,514.58L209.49,520.27L207.43,516.82L199.68,520.26L198.33,524.58L201.66,525.34L202.97,529.97L200.98,531.51L202.13,544.72L205.3,544.47L205.58,549.91L208.4,550.81L206.67,553.11L209.25,554.87L204.1,566.8L206.4,570.93L206.4,570.93L204.44,572.16L207.85,576.87L196.72,578.15L196.62,582.87L190.25,588.76L187.17,587.29L188.71,581.63L191.97,581.76L193.37,578.24L189.11,579.32L188.52,576.11L180.8,575.02L180.19,566.45L174,567.78L175.32,574.53L171.82,577.14L166.36,570.37L162.99,570.34L162.99,570.34L158.96,559.7L166.61,552.81L163.07,552.18L160.28,546.83L156.62,531.69L147.81,525.89L128.79,532.15L121.66,523.67L125.77,521.07L126.65,516.79L131.62,519.2L131.78,515.09L128.71,512.68L130.36,509.21L135.33,505.79L138.18,507.96L138.42,502.49L142.89,503.54L143.7,499.7L139.92,492.22L133.79,488.56L136.77,484.32L135.78,477.16L138.86,473.89L142.66,476.29L144.72,474.55L144.01,461.08L144.01,461.08L146.74,456.2L144.6,450.64L153.07,441.46L158.94,443.44L165.39,437.61L165.28,432.87L170.31,427.46L168.09,421.33L181.98,418.31L180.44,415.53L184.98,408.27L182.08,401.69L174.03,404.39L171.58,401.32L175.59,395.35L180.31,391.22L195.87,389.93L196.45,386.03L192.88,380.49L201,376.79L205.64,379.11L205.92,384.27L213.6,382.79L223.52,369.32L221.31,366.92z"/>
  <path id="Bayern" class="land"
  	d="M266.23,478L270.48,473.26L272.67,475.36L276.56,474.22L278.37,478.53L284.63,480.24L288.76,490.22L292.4,489.44L294.9,494.07L298.27,493.2L301.79,496.22L302.29,506.5L309.26,509.04L310.2,504.4L317.53,505.09L317.46,502.02L309.21,497.5L309.05,495L316.62,490.37L323.22,490.38L326.34,494.82L334.65,492.94L337.36,496.54L336.61,501L343.32,502.7L345.43,493.56L343.09,481.72L345.84,482.04L349.35,477.53L354.77,478.48L354.1,485.17L355.54,487.62L358.09,486.59L360.59,492.12L376.99,487.67L379.89,490.67L386.17,487.29L386.17,487.29L389.97,490.78L389.6,494.54L397.47,497.79L397.47,497.79L399.97,502L396.88,504.61L404.79,512.65L403.76,518.53L408.57,521.79L407.68,523.58L422.28,531.21L421.51,535.67L425.94,537.18L421.17,550.4L416.77,554.73L424.29,560.24L424.69,566.94L426.76,566.79L428.63,574.79L432.09,576.2L432.93,584.92L439.31,588.8L440.77,593.47L451.2,593.76L456.61,597.66L466.17,613.93L473.22,615.73L479.86,622.03L480.49,628.52L486.35,632.92L488.68,629.75L494.89,632.16L497.58,638.83L501.81,638.26L508.3,649.33L505.41,654.76L508.14,656.38L507.23,664.48L501.4,674.04L487.21,666.82L482.75,669.85L482.75,682.09L476.08,692.11L456.13,698.62L439.37,711.16L439.64,716.26L446.79,726.7L450.85,728.57L455.02,737.46L448.93,749.36L455.88,749.36L459.93,752.81L457.76,771.19L454.98,773.84L441.86,765.17L440.83,762.75L443.63,759.83L439.46,756.18L440.97,754.08L429.62,754.15L427.77,757.93L422.77,758.66L419.03,752.07L407.26,753.58L407.05,747.56L401.39,751.59L403.92,760.43L391.59,758.63L381.14,762.7L367.89,761.51L363.8,768.98L354.89,769.14L351.75,772.99L354.14,775.6L348.77,775.17L344.36,780.07L341.52,780.26L343.37,777.17L340.34,776.63L334.6,780.14L325.74,779.97L323.1,772.23L318.88,772.09L321.96,769.19L320.06,766.94L313.1,769.09L301.71,763.96L300.04,767.25L296.94,767.13L292.61,765.2L294.23,762.41L291.51,762.49L293.9,776.69L291.37,781.53L284.63,788.67L274.79,792L278.68,781.46L275.23,780.46L269.83,784L269.5,774.78L263.57,772L261.64,766.05L255.45,767.74L251.7,765.87L250.8,761.43L246.66,767.24L237.99,765.89L237.99,765.89L240.46,760.72L247.75,759.86L254.1,753.61L261.25,756.1L265.24,752.82L268.4,757.25L271.85,753.65L271.03,745.83L267.56,743.26L272.29,741.14L268.49,735.77L272.21,712.47L267.69,696.3L261.67,687.07L265.91,679.33L270.3,677.56L274.4,679.44L278.49,674.31L283.33,673.21L284.08,664.99L279.78,659.56L280.66,655.93L286.54,660.69L289.56,656.42L291.47,656.87L289.73,659.92L295.08,657.42L290.1,651.69L292.46,640.9L290.51,636.37L292.69,635.28L285.74,624.51L279.51,623.31L279.52,618.31L276.9,617.41L279.36,612.77L271.48,607.84L270.57,602.12L273.56,600.01L270.38,590.36L273.86,588.72L269.55,583.64L271.32,577.6L267.63,573.96L264.68,579.97L258.88,580.05L258.1,570.52L254.53,574.11L251.49,573.13L255.37,567.68L250.76,555.86L246.78,560.08L245.11,556.21L241.49,560.16L239.69,558.47L241.23,549.9L236,550.76L235.63,554.54L231.83,550.18L219.9,552.21L218.66,555.14L223.62,556.09L222.65,558.51L224.49,555.9L226.55,557.79L225.72,564.3L219.18,563.34L215.05,570.59L206.4,570.93L206.4,570.93L204.1,566.8L209.25,554.87L206.67,553.11L208.4,550.81L205.58,549.91L205.3,544.47L202.13,544.72L200.98,531.51L202.97,529.97L201.66,525.34L198.33,524.58L199.68,520.26L207.43,516.82L209.49,520.27L213.92,514.58L223.4,516.33L227.46,520.98L232.45,519.97L231.68,505.4L242.14,506.21L241.49,502.46L247.38,498.61L248.36,487.1L257.28,489.23L264.73,482.94z"/>
  </g>
</g>

</svg>